<?xml version="1.0" standalone="no"?>
<!DOCTYPE svg PUBLIC "-//W3C//DTD SVG 20010904//EN"
 "http://www.w3.org/TR/2001/REC-SVG-20010904/DTD/svg10.dtd">
<svg version="1.0" xmlns="http://www.w3.org/2000/svg"
 width="2063.000000pt" height="2063.000000pt" viewBox="0 0 2063.000000 2063.000000"
 preserveAspectRatio="xMidYMid meet">
<metadata>
Created by potrace 1.11, written by Peter Selinger 2001-2013
</metadata>
<g transform="translate(0.000000,2063.000000) scale(0.100000,-0.100000)"
fill="#000000" stroke="none">
<path d="M9949 20166 c-2 -2 -71 -7 -154 -10 -147 -6 -206 -10 -335 -21 -125
-11 -175 -16 -210 -20 -19 -3 -60 -7 -90 -10 -30 -4 -66 -8 -80 -10 -14 -2
-50 -6 -80 -10 -30 -4 -66 -8 -80 -10 -87 -13 -239 -37 -260 -41 -14 -2 -41
-7 -60 -10 -98 -16 -302 -56 -425 -84 -77 -17 -149 -33 -160 -35 -66 -15 -323
-83 -455 -121 -446 -128 -963 -320 -1338 -495 -46 -22 -85 -39 -87 -39 -8 0
-374 -183 -470 -235 -529 -284 -1040 -620 -1506 -991 -104 -83 -306 -252 -345
-289 -6 -5 -42 -37 -79 -70 -368 -323 -833 -816 -1156 -1225 -547 -692 -1001
-1451 -1329 -2220 -34 -80 -65 -154 -71 -165 -52 -114 -204 -537 -284 -790
-48 -152 -140 -476 -148 -522 -12 -65 -29 -104 -45 -102 -44 4 -63 -4 -111
-47 -206 -185 -462 -833 -545 -1379 -38 -252 -44 -345 -41 -635 2 -146 6 -276
8 -290 3 -14 8 -50 11 -80 6 -67 31 -235 46 -310 6 -30 13 -66 16 -80 3 -14
10 -43 16 -65 5 -22 12 -50 14 -62 17 -92 102 -347 164 -493 30 -68 105 -208
119 -220 3 -3 18 -21 33 -41 28 -37 91 -75 108 -64 6 3 10 0 11 -7 0 -7 3 -24
5 -38 12 -68 34 -199 39 -235 4 -22 8 -47 10 -55 2 -8 7 -30 10 -47 24 -143
80 -396 134 -608 23 -88 44 -168 46 -178 24 -103 163 -542 231 -728 53 -147
148 -390 180 -464 10 -22 18 -42 19 -45 0 -3 11 -27 23 -54 12 -27 22 -50 22
-52 0 -2 22 -52 50 -110 27 -58 50 -108 50 -110 0 -9 208 -420 264 -522 242
-441 482 -816 775 -1207 187 -250 444 -562 586 -711 17 -17 47 -51 69 -75 60
-69 351 -363 468 -474 111 -105 118 -111 268 -243 146 -129 151 -133 230 -197
41 -33 77 -62 80 -66 3 -3 37 -30 75 -60 60 -47 115 -90 319 -242 292 -220
811 -544 1191 -744 116 -61 483 -243 491 -243 2 0 37 -16 77 -35 595 -278
1500 -563 2193 -689 16 -3 38 -8 50 -10 42 -9 330 -56 379 -62 27 -3 59 -8 70
-9 67 -10 280 -35 335 -40 36 -3 81 -8 100 -10 19 -2 73 -7 120 -10 47 -3 108
-8 135 -10 300 -24 1035 -24 1310 0 22 2 85 6 140 10 55 3 107 8 115 10 8 2
55 7 105 10 49 4 92 8 95 10 3 1 37 6 75 9 39 4 81 9 95 11 14 2 45 7 70 10
25 3 88 13 140 21 52 9 104 17 115 19 11 1 38 5 60 9 38 6 52 8 115 20 14 3
41 8 60 10 19 3 44 8 55 10 11 3 85 19 165 36 403 85 939 237 1273 361 42 16
114 43 160 59 45 17 91 35 102 40 11 5 81 34 156 64 75 30 159 64 185 77 27
12 76 34 109 49 33 15 83 37 110 50 64 29 487 240 500 250 6 4 46 26 90 50
499 266 1159 721 1640 1132 11 9 31 26 45 38 14 12 41 36 60 53 20 18 76 68
125 112 210 187 503 481 707 710 44 50 95 106 112 125 272 301 655 818 913
1230 445 712 779 1428 1034 2218 45 139 133 438 144 487 2 11 22 91 44 178 22
87 42 170 45 185 2 15 16 83 31 152 35 163 105 552 105 582 0 4 12 3 26 -2
103 -39 275 257 398 688 20 67 38 133 40 145 2 12 10 45 16 72 6 28 13 59 16
70 11 58 14 72 18 95 9 57 19 116 22 135 2 11 7 47 10 80 4 33 8 62 9 65 8 13
19 272 18 425 0 149 -5 242 -18 375 -29 284 -121 665 -233 965 -163 435 -387
732 -474 628 -10 -12 -21 22 -64 184 -29 109 -59 221 -67 248 -8 28 -22 77
-31 110 -77 276 -310 898 -447 1193 -22 46 -39 86 -39 88 0 7 -239 485 -259
519 -10 17 -32 56 -50 88 -80 148 -100 182 -184 322 -125 208 -206 333 -375
580 -133 194 -434 582 -597 770 -358 414 -670 724 -1115 1109 -87 75 -265 218
-385 309 -77 59 -144 110 -150 115 -102 81 -702 482 -722 482 -3 0 -17 8 -31
19 -113 79 -774 430 -997 528 -38 17 -112 49 -163 72 -50 22 -94 41 -97 41 -2
0 -29 11 -59 25 -30 14 -58 25 -61 25 -4 0 -21 7 -38 15 -39 17 -266 105 -287
110 -8 2 -67 23 -130 45 -110 40 -504 166 -545 175 -11 2 -69 18 -130 35 -60
16 -119 32 -130 35 -11 2 -85 20 -165 39 -188 45 -512 111 -650 132 -19 3 -75
12 -125 19 -49 8 -110 17 -135 20 -25 3 -56 8 -70 10 -81 12 -111 15 -160 20
-30 3 -71 7 -90 10 -19 2 -66 7 -105 10 -38 3 -86 8 -105 10 -32 4 -119 10
-300 22 -87 5 -886 13 -891 9z m886 -259 c33 -3 107 -9 165 -12 58 -4 113 -9
122 -10 9 -2 54 -6 100 -9 46 -4 92 -8 103 -10 11 -2 51 -7 88 -11 37 -3 76
-8 85 -10 9 -1 42 -6 73 -9 31 -4 65 -8 75 -10 11 -2 42 -7 69 -10 70 -9 300
-48 351 -60 12 -2 39 -7 60 -10 143 -23 536 -116 789 -188 414 -117 909 -294
1246 -446 24 -11 82 -37 129 -58 142 -64 495 -242 643 -326 77 -43 141 -78
143 -78 4 0 290 -173 358 -218 313 -203 510 -341 736 -516 85 -66 157 -123
160 -126 3 -3 43 -36 90 -75 47 -38 117 -96 155 -130 39 -34 85 -75 104 -91
245 -210 688 -664 950 -974 35 -41 73 -86 84 -100 127 -149 437 -561 437 -579
0 -5 4 -11 8 -13 5 -1 47 -59 93 -128 46 -69 87 -126 92 -128 4 -2 7 -8 7 -13
0 -6 17 -36 39 -67 37 -56 107 -167 141 -227 10 -16 39 -66 65 -110 203 -340
450 -842 605 -1230 29 -71 58 -143 65 -160 48 -112 195 -551 260 -775 72 -247
164 -636 211 -880 2 -14 7 -36 9 -50 10 -49 51 -303 60 -370 3 -25 8 -56 10
-70 14 -97 17 -144 30 -505 3 -71 7 -186 10 -255 3 -69 7 -177 10 -240 5 -122
13 -326 20 -475 6 -117 6 -380 1 -425 -3 -19 -7 -73 -11 -120 -6 -89 -12 -165
-20 -240 -3 -25 -7 -70 -10 -100 -10 -98 -41 -333 -49 -375 -2 -11 -9 -55 -16
-98 -15 -100 -18 -121 -30 -182 -5 -27 -12 -61 -14 -75 -2 -14 -16 -81 -30
-150 -286 -1410 -923 -2797 -1805 -3930 -92 -119 -335 -416 -350 -430 -3 -3
-42 -45 -86 -95 -208 -235 -556 -583 -780 -780 -44 -38 -93 -82 -110 -97 -328
-289 -835 -660 -1240 -908 -66 -40 -131 -80 -145 -89 -14 -9 -34 -21 -45 -27
-11 -6 -94 -53 -185 -104 -211 -118 -681 -352 -820 -407 -19 -8 -44 -18 -55
-23 -184 -83 -816 -319 -899 -336 -10 -2 -68 -19 -130 -38 -351 -107 -867
-226 -1221 -280 -55 -8 -120 -18 -135 -21 -8 -1 -42 -6 -75 -10 -32 -4 -66 -8
-75 -10 -8 -2 -44 -6 -80 -9 -36 -4 -76 -9 -90 -11 -35 -6 -136 -16 -300 -30
-387 -33 -1040 -38 -1415 -10 -139 10 -222 17 -260 20 -22 2 -69 7 -105 10
-36 3 -76 8 -90 10 -14 2 -50 7 -80 10 -30 3 -66 7 -80 9 -14 2 -47 7 -75 11
-93 12 -120 16 -205 30 -47 8 -102 17 -124 21 -21 3 -48 8 -60 10 -11 3 -57
11 -101 19 -44 8 -89 17 -100 19 -11 3 -65 14 -120 26 -55 11 -118 25 -140 31
-22 6 -50 13 -63 15 -189 35 -998 283 -1157 354 -11 5 -45 19 -75 30 -30 11
-64 25 -75 30 -11 5 -85 35 -165 68 -80 33 -176 74 -215 92 -188 87 -231 108
-377 181 -155 77 -204 102 -383 202 -248 138 -723 436 -733 459 -2 4 -8 8 -13
8 -16 0 -386 272 -562 413 -131 106 -327 270 -383 322 -6 5 -53 48 -105 95
-107 97 -464 452 -554 551 -33 36 -78 85 -101 110 -142 155 -345 399 -495 594
-174 227 -453 633 -564 823 -6 9 -42 71 -81 137 -40 66 -84 143 -99 170 -15
28 -35 64 -45 80 -134 231 -346 678 -480 1010 -28 72 -56 139 -61 150 -72 165
-267 768 -325 1005 -2 8 -17 67 -33 131 -29 115 -79 330 -87 379 -3 14 -12 59
-20 100 -9 41 -17 86 -19 100 -2 14 -13 77 -24 140 -11 63 -23 132 -25 152 -3
21 -7 53 -10 70 -9 54 -17 110 -22 158 -2 25 -6 59 -9 75 -2 17 -7 57 -10 90
-3 33 -8 74 -10 90 -2 17 -6 64 -10 105 -3 41 -8 95 -10 120 -5 57 -5 198 -1
270 2 30 7 114 10 185 3 72 8 173 11 225 2 52 7 163 10 245 3 83 7 191 10 240
2 50 7 167 10 260 4 94 8 215 11 270 2 55 6 181 9 280 6 219 1 185 80 630 18
100 103 465 142 605 24 91 46 173 48 182 8 39 117 382 155 488 23 63 42 120
44 125 3 14 50 137 119 310 85 216 195 461 308 690 92 186 125 249 199 380 15
28 40 72 55 100 123 225 417 677 610 940 428 582 932 1128 1475 1595 603 520
1264 961 1970 1315 196 98 344 167 545 252 127 54 370 152 390 157 6 2 17 6
25 9 38 16 195 71 295 104 61 19 149 48 196 64 121 40 675 187 768 204 49 9
76 14 146 29 79 17 76 17 275 52 157 27 173 30 240 39 25 3 52 8 60 10 8 2 44
7 80 10 36 4 72 8 80 10 8 2 44 6 80 10 36 4 72 9 82 10 15 3 103 11 226 20
32 3 80 7 107 9 28 3 104 8 170 11 66 4 121 8 123 9 5 5 883 -2 947 -7z"/>
<path d="M10065 19587 c-58 -20 -12 -41 82 -38 l62 2 -1 -38 c-1 -34 7 -761
17 -1578 4 -313 6 -622 5 -697 l0 -46 -55 0 c-31 1 -60 -3 -66 -9 -27 -27 6
-32 199 -32 108 0 243 -3 298 -6 84 -4 103 -3 107 10 8 20 -10 29 -68 31 l-50
1 2 139 c1 124 4 215 18 594 12 332 17 435 21 439 11 11 92 -27 122 -58 87
-86 117 -230 97 -469 -5 -70 -4 -83 10 -88 28 -11 31 0 40 143 3 54 8 118 10
143 2 25 7 95 11 155 3 61 8 118 9 127 2 9 7 68 10 130 4 62 8 129 10 148 19
178 24 402 10 406 -23 8 -33 -15 -39 -91 -23 -276 -89 -420 -220 -481 -69 -32
-74 -27 -70 64 1 42 6 165 9 272 3 107 8 229 10 270 2 41 7 170 10 285 4 116
9 214 12 218 7 12 127 6 190 -8 85 -20 123 -50 172 -136 81 -144 142 -415 145
-644 2 -105 3 -110 24 -113 17 -3 22 2 23 20 0 13 2 32 4 43 2 11 7 52 10 90
3 39 8 86 10 105 5 34 8 66 20 195 3 33 8 76 10 95 2 19 7 64 10 100 4 36 10
93 14 127 4 35 7 79 7 99 -1 42 4 39 -115 49 -42 3 -98 8 -126 10 -129 11
-181 15 -330 21 -230 10 -651 10 -680 1z"/>
<path d="M9867 19584 c-1 -1 -58 -4 -127 -8 -157 -8 -250 -14 -320 -22 -30 -4
-69 -8 -86 -9 -55 -5 -251 -26 -275 -30 -9 -2 -40 -6 -70 -10 -30 -3 -79 -10
-109 -15 -30 -5 -77 -12 -105 -15 -27 -4 -57 -8 -65 -10 -8 -3 -33 -7 -55 -10
-22 -3 -53 -9 -70 -12 -16 -3 -39 -7 -50 -9 -30 -4 -67 -13 -71 -16 -1 -2 2
-26 7 -53 17 -84 49 -258 54 -290 3 -16 14 -73 25 -125 10 -52 24 -122 30
-155 6 -33 13 -71 16 -85 3 -14 7 -34 8 -45 5 -26 37 -196 41 -215 2 -8 4 -20
4 -27 1 -6 8 -19 17 -28 12 -12 19 -13 30 -4 11 9 12 27 7 78 -11 109 -4 443
11 541 3 14 7 43 10 65 24 173 74 309 127 348 29 21 107 39 114 27 3 -4 7 -25
10 -46 11 -84 27 -204 40 -299 8 -55 17 -118 19 -140 3 -22 8 -55 10 -73 6
-40 27 -187 32 -225 2 -15 6 -46 9 -67 3 -22 8 -59 11 -82 3 -24 7 -54 9 -68
2 -14 11 -79 20 -145 8 -66 17 -129 19 -140 2 -11 7 -47 11 -80 4 -32 8 -66
10 -75 1 -8 6 -37 9 -65 4 -27 9 -61 11 -75 2 -14 7 -47 10 -75 3 -27 7 -57
10 -65 2 -8 6 -40 10 -71 3 -31 7 -65 9 -75 2 -11 7 -44 10 -75 4 -31 8 -65
10 -75 4 -22 16 -106 21 -149 7 -61 17 -127 20 -146 3 -15 -2 -19 -23 -20 -15
0 -34 -2 -42 -4 -8 -1 -29 -5 -47 -8 -42 -7 -53 -15 -46 -33 4 -12 16 -14 57
-9 28 3 58 8 66 10 8 2 38 6 65 10 28 3 61 8 75 10 14 2 52 7 85 10 33 3 74 8
90 9 17 2 71 7 120 11 106 8 124 15 102 37 -15 14 -66 16 -119 4 -10 -2 -20
-1 -22 3 -5 7 -11 61 -21 186 -3 33 -8 80 -10 105 -7 69 -15 159 -20 225 -3
33 -7 80 -10 105 -2 25 -7 79 -10 120 -4 41 -8 93 -11 115 -2 22 -6 67 -9 100
-6 72 -12 139 -20 220 -3 33 -7 85 -10 115 -6 77 -15 176 -20 233 -3 26 -7 68
-10 95 -13 142 -19 205 -30 342 -3 41 -8 91 -10 110 -5 40 -15 153 -20 223 -4
44 -2 47 21 48 13 1 34 2 47 3 76 7 157 -98 250 -324 29 -69 94 -267 112 -340
22 -86 45 -214 45 -251 0 -50 17 -74 44 -63 16 6 17 22 11 163 -3 86 -8 201
-10 256 -9 236 -18 454 -20 500 -2 28 -3 69 -4 91 -1 40 -2 42 -32 40 -17 0
-31 -1 -32 -2z"/>
<path d="M12028 19465 c-2 -1 -28 -5 -58 -8 -269 -27 -482 -291 -545 -677 -3
-19 -7 -46 -10 -60 -3 -14 -7 -47 -10 -75 -3 -27 -8 -66 -10 -85 -3 -19 -7
-53 -10 -75 -7 -56 -35 -288 -41 -338 -2 -23 -11 -91 -18 -152 -30 -236 -6
-547 55 -710 84 -225 281 -337 483 -275 182 56 351 274 459 590 21 60 94 322
112 401 2 8 28 116 59 240 59 237 59 236 71 314 14 97 16 121 20 235 13 366
-162 615 -467 663 -48 8 -89 13 -90 12z m128 -75 c66 -25 103 -113 83 -195 -4
-16 -10 -47 -13 -68 -4 -22 -13 -69 -21 -105 -8 -37 -16 -78 -19 -92 -2 -14
-7 -36 -10 -50 -3 -14 -8 -36 -10 -50 -2 -14 -7 -36 -10 -50 -3 -14 -8 -36
-10 -50 -2 -14 -7 -36 -10 -50 -3 -14 -8 -36 -10 -50 -3 -14 -19 -92 -36 -175
-17 -82 -32 -159 -34 -170 -2 -11 -18 -87 -35 -170 -16 -82 -32 -161 -35 -175
-9 -44 -57 -284 -62 -305 -2 -11 -6 -31 -9 -45 -3 -14 -7 -34 -9 -45 -2 -11
-21 -103 -41 -205 -20 -102 -41 -198 -47 -214 -15 -38 -52 -74 -84 -82 -36 -9
-92 19 -106 53 -15 35 -19 148 -8 199 8 37 19 96 25 139 3 22 12 77 19 115 5
24 19 108 31 180 10 60 46 264 50 290 6 28 34 199 41 245 3 17 7 41 10 55 2
14 7 41 9 60 3 19 10 55 15 80 5 25 14 72 19 105 5 33 24 143 41 245 40 239
39 231 45 260 2 13 7 42 10 65 3 22 8 47 10 55 2 8 6 32 9 53 18 118 106 183
202 147z"/>
<path d="M7825 19243 c-49 -14 -96 -25 -104 -26 -13 0 -13 -3 4 -192 9 -92 16
-163 20 -185 2 -14 7 -54 10 -90 4 -36 8 -76 10 -90 2 -14 6 -54 10 -90 4 -36
8 -76 10 -90 2 -14 6 -50 10 -80 3 -30 7 -66 10 -80 2 -14 6 -50 10 -80 3 -30
8 -71 10 -90 3 -19 7 -54 10 -77 3 -23 7 -57 10 -75 2 -18 12 -89 20 -158 9
-69 18 -136 20 -150 2 -14 7 -45 10 -70 3 -25 8 -56 10 -70 2 -14 7 -45 10
-70 3 -25 12 -83 20 -130 8 -47 17 -110 20 -140 3 -30 8 -62 10 -70 22 -81 26
-246 7 -281 -7 -14 -26 -33 -42 -44 -31 -20 -38 -39 -20 -50 5 -3 58 10 117
29 60 19 127 39 151 46 35 9 43 15 40 32 -3 17 -11 20 -55 22 -42 1 -58 7 -81
29 -39 37 -68 142 -88 312 -3 22 -6 47 -8 57 -3 13 24 24 143 58 80 23 153 43
162 45 10 2 20 -9 28 -33 7 -21 24 -64 36 -97 44 -114 105 -285 105 -294 0 -4
-20 -14 -45 -21 -42 -12 -57 -31 -36 -45 5 -3 56 7 113 21 57 14 110 28 118
30 22 5 263 56 279 58 15 3 36 35 24 38 -4 1 -28 2 -51 2 -42 1 -45 3 -59 41
-18 49 -43 118 -76 210 -14 39 -58 158 -98 265 -39 107 -82 222 -94 255 -56
156 -381 978 -433 1098 -10 23 -47 111 -82 195 -54 127 -68 152 -85 151 -11 0
-60 -12 -110 -26z m73 -833 c38 -91 88 -212 111 -270 24 -58 47 -114 52 -125
5 -11 35 -87 68 -170 161 -410 163 -415 134 -415 -11 0 -79 -17 -152 -39 -72
-21 -133 -35 -135 -32 -2 3 -6 29 -10 56 -3 28 -8 64 -11 80 -10 58 -14 91
-20 140 -4 28 -10 75 -15 105 -5 30 -12 80 -15 110 -3 30 -8 66 -10 80 -2 14
-7 50 -10 80 -3 30 -8 66 -10 80 -2 14 -7 50 -10 80 -3 30 -7 66 -10 80 -2 14
-7 54 -10 90 -3 36 -7 76 -9 90 -8 50 -17 154 -12 150 2 -3 35 -79 74 -170z"/>
<path d="M12874 19239 c-6 -11 15 -29 41 -36 6 -1 31 -8 57 -14 56 -14 59 18
-24 -274 -33 -115 -61 -217 -63 -225 -2 -8 -70 -244 -150 -525 -81 -280 -150
-523 -155 -540 -4 -16 -51 -184 -105 -372 l-98 -343 -26 6 c-86 18 -103 17
-99 -2 2 -14 34 -27 148 -60 80 -23 200 -60 267 -83 68 -22 129 -41 138 -41
32 0 13 31 -30 50 -25 11 -45 23 -45 28 0 9 98 303 284 851 47 140 86 256 86
258 0 20 145 -44 175 -77 36 -40 29 -103 -31 -267 -30 -81 -59 -157 -64 -168
-8 -18 -129 -347 -186 -509 -58 -162 -2 -272 169 -334 106 -38 240 -12 324 62
87 76 157 226 106 226 -12 0 -31 -19 -53 -57 -99 -163 -196 -226 -232 -149 -8
20 10 70 117 322 165 387 164 384 162 492 -2 77 -6 96 -35 154 -40 82 -102
152 -193 218 -38 28 -69 51 -69 53 0 1 49 1 108 0 131 -2 209 14 312 64 183
89 322 318 322 532 0 183 -104 363 -277 479 -88 58 -317 141 -686 247 -168 48
-184 51 -195 34z m753 -266 c107 -50 110 -75 35 -273 -22 -58 -73 -193 -112
-300 -40 -107 -81 -217 -92 -244 -11 -27 -21 -56 -23 -66 -2 -10 -15 -42 -29
-72 -27 -58 -66 -88 -119 -92 -29 -3 -142 28 -159 43 -4 4 51 180 123 391 71
212 150 449 176 526 l46 142 51 -15 c28 -8 75 -26 103 -40z"/>
<path d="M6420 18800 c-63 -27 -121 -50 -127 -50 -7 0 -13 -4 -13 -10 0 -5 -7
-10 -15 -10 -27 0 -441 -206 -448 -223 -11 -29 21 -26 92 8 l72 35 8 -23 c5
-12 69 -143 141 -292 73 -148 167 -342 210 -430 43 -88 135 -277 205 -420 70
-143 161 -330 202 -415 131 -270 256 -525 259 -531 2 -4 -18 -18 -46 -30 -51
-25 -68 -45 -51 -62 6 -6 70 20 175 72 91 44 167 81 170 81 3 0 33 13 68 29
35 17 92 42 128 56 36 14 74 30 85 35 11 5 76 29 145 54 69 24 133 48 142 51
15 6 16 10 5 33 -7 15 -78 224 -158 466 -79 241 -150 441 -157 443 -27 11 -31
-12 -16 -82 8 -39 16 -82 19 -96 3 -14 11 -60 19 -103 24 -125 31 -211 31
-391 -1 -199 -14 -260 -70 -319 -38 -40 -142 -94 -155 -80 -6 7 -637 1465
-767 1774 -18 42 -42 98 -54 125 -5 11 -31 72 -58 135 l-49 115 61 28 c85 38
92 42 92 58 0 25 -29 19 -145 -31z"/>
<path d="M14552 18613 c2 -10 29 -30 60 -45 31 -15 59 -31 62 -37 4 -5 -75
-175 -175 -378 -100 -202 -265 -537 -366 -743 -283 -575 -429 -866 -446 -890
-26 -37 -57 -53 -111 -56 -28 -1 -54 -3 -58 -3 -5 -1 -8 -7 -8 -13 0 -15 305
-170 314 -161 16 16 3 42 -30 59 -40 21 -64 59 -64 102 0 19 170 369 465 957
256 510 465 923 465 917 0 -5 -25 -81 -55 -168 -31 -88 -72 -206 -91 -264 -43
-127 -272 -758 -315 -867 -16 -43 -32 -85 -34 -93 -2 -8 -62 -166 -133 -350
-80 -206 -126 -339 -121 -346 16 -20 110 -66 124 -60 8 3 85 94 172 203 87
109 160 200 163 203 3 3 66 79 140 170 74 90 142 172 150 180 8 9 81 95 161
191 81 96 157 186 170 200 13 14 49 55 79 90 121 140 366 416 399 449 30 31
32 32 17 7 -23 -37 -715 -1135 -830 -1317 -51 -80 -144 -227 -207 -327 -63
-101 -117 -183 -121 -183 -4 0 -30 14 -56 30 -57 35 -72 37 -72 12 0 -13 37
-42 118 -92 64 -41 137 -88 162 -105 25 -17 77 -53 115 -80 39 -26 77 -53 85
-60 8 -7 21 -10 28 -8 24 9 11 34 -33 65 -25 18 -45 35 -45 38 0 5 228 335
300 435 12 17 95 136 185 265 90 129 168 240 173 246 5 5 15 21 22 35 7 13 16
26 20 29 3 3 36 48 72 100 74 107 379 546 439 630 21 30 59 85 84 123 l46 67
75 -51 c49 -34 78 -49 85 -42 15 15 2 35 -44 67 -173 122 -259 180 -372 252
l-130 84 -20 -24 c-11 -13 -61 -68 -112 -122 -133 -143 -127 -138 -258 -284
-66 -74 -124 -140 -130 -146 -5 -6 -35 -40 -65 -74 -30 -35 -63 -73 -74 -84
-10 -12 -37 -43 -60 -70 -22 -27 -46 -54 -51 -60 -6 -6 -57 -66 -114 -133 -57
-68 -105 -123 -107 -123 -2 0 3 12 11 28 59 110 535 1310 535 1345 0 14 -33
33 -328 183 -224 114 -267 130 -260 97z"/>
<path d="M5408 18225 c-1 -1 -21 -5 -43 -8 -113 -16 -255 -87 -520 -263 -256
-170 -350 -239 -353 -263 -5 -29 11 -25 86 28 53 36 66 41 76 30 12 -13 450
-639 595 -849 36 -52 69 -99 74 -105 5 -5 39 -55 77 -110 38 -55 74 -107 80
-115 6 -8 39 -55 74 -105 34 -49 147 -210 249 -357 103 -146 187 -269 187
-272 0 -2 -20 -19 -45 -37 -42 -31 -61 -69 -32 -69 9 0 148 92 192 127 13 11
218 143 277 179 28 17 48 36 48 47 0 24 -25 21 -68 -8 -20 -14 -42 -25 -48
-25 -7 0 -23 19 -37 43 -13 23 -68 112 -122 197 -213 336 -367 582 -371 594
-2 6 24 30 58 53 196 130 306 329 306 551 0 105 -17 164 -88 311 -94 191 -160
279 -258 339 -38 23 -125 58 -164 66 -13 3 -34 8 -48 11 -29 6 -177 15 -182
10z m-100 -109 c24 -13 82 -69 82 -80 0 -3 42 -76 94 -163 383 -648 415 -704
422 -740 10 -50 -27 -114 -89 -157 -29 -20 -57 -36 -62 -36 -6 0 -23 21 -39
48 -16 26 -44 70 -62 97 -24 38 -276 440 -357 569 -7 11 -63 100 -125 200
l-113 180 23 18 c45 33 141 78 170 78 16 0 41 -6 56 -14z"/>
<path d="M9988 16795 c-2 -2 -52 -6 -113 -10 -60 -3 -126 -8 -145 -10 -19 -2
-67 -7 -107 -10 -40 -4 -85 -8 -100 -10 -15 -2 -55 -7 -88 -10 -33 -4 -62 -8
-65 -10 -3 -2 -34 -6 -69 -10 -34 -4 -72 -8 -84 -11 -12 -2 -38 -6 -57 -9 -19
-3 -46 -7 -60 -10 -26 -6 -35 -7 -110 -21 -25 -4 -47 -8 -50 -9 -3 -1 -25 -5
-50 -9 -25 -5 -112 -24 -195 -43 -82 -19 -157 -36 -166 -38 -55 -12 -368 -105
-491 -146 -441 -146 -912 -356 -1303 -580 -88 -51 -169 -97 -180 -103 -38 -22
-161 -101 -280 -181 -490 -329 -863 -648 -1311 -1120 -63 -67 -235 -267 -330
-385 -474 -589 -880 -1298 -1136 -1985 -110 -295 -251 -762 -292 -967 -3 -13
-14 -67 -25 -122 -25 -117 -28 -133 -41 -211 -5 -33 -12 -71 -15 -85 -2 -13
-7 -42 -10 -65 -3 -22 -8 -51 -10 -65 -3 -14 -7 -45 -10 -70 -8 -67 -15 -122
-20 -150 -2 -14 -7 -61 -10 -105 -3 -44 -8 -91 -10 -105 -4 -22 -9 -86 -21
-290 -5 -94 -5 -598 0 -710 7 -137 20 -304 31 -400 2 -19 7 -60 10 -90 7 -64
9 -85 20 -160 4 -30 9 -66 10 -80 2 -14 12 -77 23 -140 12 -63 24 -131 27
-150 65 -381 277 -1098 410 -1387 8 -17 15 -34 15 -38 0 -3 12 -32 26 -63 14
-31 32 -70 39 -87 190 -433 441 -877 719 -1270 87 -123 77 -109 129 -175 24
-30 48 -62 53 -71 28 -49 303 -373 444 -524 1004 -1074 2314 -1829 3727 -2146
181 -40 174 -39 203 -44 14 -2 102 -17 195 -34 94 -16 195 -32 226 -35 31 -4
65 -8 75 -10 11 -2 51 -7 89 -11 39 -3 84 -8 100 -10 30 -4 105 -11 225 -20
319 -24 928 -19 1150 10 19 3 62 7 95 10 71 6 164 16 185 20 8 2 44 6 80 10
36 4 83 10 105 15 22 5 60 11 85 15 25 3 71 10 102 16 32 6 70 12 85 15 16 2
39 7 53 10 14 3 36 8 50 11 14 2 45 9 70 14 25 6 55 13 67 15 47 9 351 87 408
104 107 33 210 64 215 65 3 1 12 4 20 7 8 4 65 23 125 43 107 36 289 103 350
129 17 8 86 37 155 66 274 116 677 324 925 478 423 263 737 498 1115 837 62
56 424 417 486 485 135 150 379 445 444 540 13 19 27 37 30 40 13 11 211 295
235 337 6 10 26 43 46 73 102 156 191 307 281 475 75 140 185 368 245 505 30
69 61 139 68 155 65 146 245 661 270 775 2 8 19 72 38 141 38 136 91 366 102
439 4 24 8 47 10 50 2 4 7 29 11 56 3 27 8 52 10 55 2 4 6 24 9 45 6 46 14 91
19 120 2 12 7 45 11 74 4 29 8 60 10 69 1 9 6 43 10 76 3 33 8 74 10 90 9 78
23 247 32 405 10 163 9 693 -1 840 -14 207 -15 221 -20 268 -3 26 -8 72 -11
102 -4 30 -8 66 -10 80 -2 14 -7 50 -10 80 -3 30 -8 69 -11 85 -3 17 -7 41 -9
55 -2 14 -7 45 -10 70 -15 102 -73 397 -100 500 -8 30 -16 66 -18 80 -12 64
-103 379 -161 553 -213 640 -515 1251 -894 1807 -72 105 -193 272 -239 330 -6
8 -42 53 -78 100 -249 317 -640 727 -915 960 -36 30 -67 58 -70 61 -16 19
-262 215 -378 301 -348 260 -696 474 -1092 673 -74 37 -147 73 -161 81 -200
104 -795 328 -1074 405 -22 6 -60 17 -85 25 -143 42 -591 142 -720 159 -24 4
-47 8 -50 10 -3 1 -30 6 -60 9 -30 4 -64 8 -75 10 -11 2 -45 7 -75 11 -30 4
-66 9 -80 11 -14 2 -56 6 -94 10 -38 3 -77 7 -87 9 -10 2 -65 7 -121 10 -57 4
-119 9 -138 12 -39 5 -807 13 -812 8z"/>
</g>
</svg>
